<svg xmlns="http://www.w3.org/2000/svg" enable-background="new 0 0 512 512" viewBox="0 0 512 512" id="landscape"><path fill="#66d5f2" d="M511.896,27.376v259.271H0.104V27.376c0-15.032,12.186-27.217,27.217-27.217h457.357C499.71,0.159,511.896,12.344,511.896,27.376z"></path><path fill="#ffce29" d="M511.896,286.647v197.978c0,7.348-2.94,14.044-7.675,18.943c-4.953,5.117-11.867,8.274-19.542,8.274H27.321c-7.675,0-14.588-3.157-19.542-8.274c-4.736-4.899-7.675-11.595-7.675-18.943V286.647H511.896z"></path><path d="M511.896,286.647v197.978c0,7.348-2.94,14.044-7.675,18.943c-4.953,5.117-11.867,8.274-19.542,8.274h-38.267c7.675,0,14.588-3.157,19.542-8.274c4.736-4.899,7.675-11.595,7.675-18.943V286.647H511.896z" opacity=".08"></path><path fill="#6d6d6d" d="M504.22,503.567c-4.953,5.117-11.867,8.274-19.542,8.274H27.321c-7.675,0-14.588-3.157-19.542-8.274l200.046-216.921h96.349L504.22,503.567z"></path><path d="M504.22,503.567c-4.953,5.117-11.867,8.274-19.542,8.274h-2.123L274.834,286.647h29.34L504.22,503.567z" opacity=".08"></path><polygon fill="#ffce29" points="260.168 286.621 260.694 293.208 251.306 293.208 251.832 286.621"></polygon><polygon fill="#ffce29" points="262.476 315.587 261.275 300.528 250.725 300.528 249.524 315.587"></polygon><polygon fill="#ffce29" points="266.452 365.44 263.643 330.222 248.357 330.222 245.548 365.44"></polygon><polygon fill="#ffce29" points="269.882 408.341 278.142 511.841 233.858 511.841 242.118 408.341"></polygon><path fill="#ad6850" d="M207.671,286.647H101.675l38.197-50.552c7.422-9.823,22.179-9.823,29.602,0L207.671,286.647z"></path><path fill="#c17d61" d="M141.787,286.647H0.104l56.041-74.167c7.422-9.823,22.179-9.823,29.602,0L141.787,286.647z"></path><path fill="#ad6850" d="M304.329,286.647h105.996l-38.197-50.552c-7.422-9.823-22.179-9.823-29.602,0L304.329,286.647z"></path><path fill="#c17d61" d="M370.213,286.647h141.683l-56.041-74.167c-7.422-9.823-22.179-9.823-29.602,0L370.213,286.647z"></path><path fill="#ffce29" d="M392.738 120.241c0 15.505-12.58 28.085-28.11 28.085-15.53 0-28.11-12.58-28.11-28.085 0-15.53 12.58-28.11 28.11-28.11C380.158 92.131 392.738 104.711 392.738 120.241zM364.629 86.97c-1.628 0-2.948-1.32-2.948-2.948v-7.057c0-1.628 1.32-2.948 2.948-2.948s2.948 1.32 2.948 2.948v7.057C367.578 85.65 366.257 86.97 364.629 86.97zM364.629 166.441c-1.628 0-2.948-1.32-2.948-2.948v-7.057c0-1.628 1.32-2.948 2.948-2.948s2.948 1.32 2.948 2.948v7.057C367.578 165.121 366.257 166.441 364.629 166.441zM390.231 97.574c-.754 0-1.509-.288-2.085-.864-1.152-1.152-1.152-3.017 0-4.169l4.99-4.99c1.152-1.152 3.017-1.152 4.169 0 1.152 1.152 1.152 3.017 0 4.169l-4.99 4.99C391.74 97.286 390.986 97.574 390.231 97.574zM334.036 153.769c-.754 0-1.509-.288-2.085-.864-1.152-1.152-1.152-3.019 0-4.169l4.991-4.99c1.152-1.152 3.017-1.152 4.169 0 1.152 1.152 1.152 3.019 0 4.169l-4.991 4.99C335.545 153.481 334.79 153.769 334.036 153.769z"></path><g><path fill="#ffce29" d="M407.892 123.176h-7.057c-1.628 0-2.948-1.32-2.948-2.948s1.32-2.948 2.948-2.948h7.057c1.628 0 2.948 1.32 2.948 2.948S409.521 123.176 407.892 123.176zM321.365 123.179c-1.628 0-2.948-1.32-2.948-2.948s1.319-2.948 2.948-2.948l7.057-.001c1.628 0 2.948 1.319 2.948 2.948 0 1.628-1.319 2.948-2.948 2.948L321.365 123.179z"></path></g><g><path fill="#ffce29" d="M395.221 153.769c-.754 0-1.509-.288-2.085-.864l-4.99-4.991c-1.152-1.152-1.152-3.019 0-4.169 1.152-1.152 3.017-1.152 4.169 0l4.99 4.991c1.152 1.152 1.152 3.019 0 4.169C396.73 153.481 395.975 153.769 395.221 153.769zM339.026 97.577c-.754 0-1.509-.288-2.085-.864l-4.991-4.991c-1.152-1.152-1.152-3.017 0-4.169 1.152-1.152 3.017-1.152 4.169 0l4.991 4.991c1.152 1.152 1.152 3.017 0 4.169C340.534 97.289 339.78 97.577 339.026 97.577z"></path></g><g><path fill="#f2f0f0" d="M273.37,168.337c0,6.019-6.339,9.858-11.63,7.238c-2.674,4.744-9.514,4.812-12.274,0.093c-3.215,4.925-10.5,4.582-13.259-0.552c-2.44,4.58-9.006,4.563-11.423-0.031c-3.933-0.186-7.057-3.423-7.057-7.403c0-4.855,4.583-8.393,9.289-7.176c-2.445-7.153,5.648-13.393,11.96-9.289c2.428-4.645,7.294-7.815,12.903-7.815c9.02,0,15.838,8.124,14.362,16.924C270.256,160.79,273.37,164.203,273.37,168.337z"></path></g><g><path fill="#f2f0f0" d="M484.54,93.738c0,6.019-6.339,9.858-11.63,7.238c-2.674,4.744-9.514,4.812-12.274,0.093c-3.215,4.925-10.5,4.582-13.259-0.552c-2.44,4.58-9.006,4.563-11.423-0.031c-3.933-0.186-7.057-3.423-7.057-7.403c0-4.855,4.583-8.393,9.289-7.176c-2.445-7.153,5.648-13.393,11.96-9.289c2.428-4.645,7.294-7.815,12.903-7.815c9.02,0,15.838,8.124,14.362,16.924C481.427,86.191,484.54,89.604,484.54,93.738z"></path></g><g><path fill="#f2f0f0" d="M162.778,111.718c0,9.101-9.584,14.905-17.584,10.943c-4.043,7.173-14.386,7.276-18.559,0.14c-4.862,7.447-15.877,6.928-20.047-0.834c-3.69,6.925-13.617,6.899-17.272-0.047c-5.947-0.281-10.671-5.175-10.671-11.193c0-7.34,6.93-12.69,14.046-10.85c-3.697-10.815,8.54-20.25,18.083-14.046c3.671-7.023,11.029-11.816,19.51-11.816c13.638,0,23.948,12.284,21.715,25.589C158.07,100.307,162.778,105.467,162.778,111.718z"></path></g><g opacity=".4"><path fill="#fff" d="M41.692,318.627v23.189c0,6.419-5.203,11.622-11.622,11.622h0c-6.419,0-11.622-5.203-11.622-11.622v-23.189c0-6.419,5.203-11.622,11.622-11.622h0C36.488,307.005,41.692,312.209,41.692,318.627z"></path></g><g opacity=".4"><path fill="#fff" d="M126.718,429.9l-14.11,18.406c-3.905,5.095-11.201,6.057-16.294,2.15l0,0c-5.094-3.907-6.057-11.205-2.151-16.299l14.11-18.406c3.905-5.095,11.201-6.057,16.294-2.15l0,0C129.66,417.508,130.623,424.806,126.718,429.9z"></path></g></svg>